# AST/ASF file generated using VICON BodyLanguage
# -----------------------------------------------
:version 1.10
:name VICON
:units
  mass 1.0
  length 0.45
  angle deg
:documentation
   .ast/.asf automatically generated from VICON data using
   VICON BodyBuilder and BodyLanguage model FoxedUp or BRILLIANT.MOD
:root
   order TX TY TZ RX RY RZ
   axis XYZ
   position 0 0 0  
   orientation 0 0 0 
:bonedata
  begin
     id 1 
     name lhipjoint
     direction 0.661853 -0.702389 0.261917 
     length 2.64193 
     axis 0 0 0  XYZ
  end
  begin
     id 2 
     name lfemur
     direction 0.34202 -0.939693 0  
     length 7.01722  
     axis 0 0 20  XYZ
    dof rx ry rz
    limits (-160.0 20.0)
           (-70.0 70.0)
           (-60.0 70.0)
  end
  begin
     id 3 
     name ltibia
     direction 0.34202 -0.939693 0   
     length 8.25008   
     axis 0 0 20   XYZ
    dof rx
    limits (-10.0 170.0)
  end
  begin
     id 4 
     name lfoot
     direction 0.0709916 -0.195048 0.978221   
     length 2.31941   
     axis -90 7.62852e-016 20   XYZ
    dof rx rz
    limits (-45.0 90.0)
           (-70.0 20.0)
  end
  begin
     id 5 
     name ltoes
     direction 1.53586e-011 -4.22017e-011 1   
     length 1.16486   
     axis -90 7.62852e-016 20   XYZ
    dof rx
    limits (-90.0 20.0)
  end
  begin
     id 6 
     name rhipjoint
     direction -0.638185 -0.721362 0.268992   
     length 2.57244  
     axis 0 0 0  XYZ 
  end
  begin
     id 7 
     name rfemur
     direction -0.34202 -0.939693 0   
     length 7.07017   
     axis 0 0 -20   XYZ
    dof rx ry rz
    limits (-160.0 20.0)
           (-70.0 70.0)
           (-70.0 60.0)
  end
  begin
     id 8 
     name rtibia
     direction -0.34202 -0.939693 0   
     length 8.20386   
     axis 0 0 -20   XYZ
    dof rx
    limits (-10.0 170.0)
 end
 begin
     id 9 
     name rfoot
     direction -0.0822429 -0.225961 0.970658   
     length 2.32215  
     axis -90 -7.62852e-016 -20   XYZ
    dof rx rz
    limits (-45.0 90.0)
           (-20.0 70.0)
  end
  begin
     id 10 
     name rtoes
     direction -1.53597e-011 -4.21689e-011 1   
     length 1.16333   
     axis -90 -7.62852e-016 -20   XYZ
    dof rx
    limits (-90.0 20.0)
  end
  begin
     id 11 
     name lowerback
     direction -0.0131557 0.998589 -0.0514484   
     length 2.14993   
     axis 0 0 0   XYZ
    dof rx ry rz
    limits (-20.0 45.0)
           (-30.0 30.0)
           (-30.0 30.0)
  end
  begin
     id 12 
     name upperback
     direction -0.000776481 0.999993 0.00352685   
     length 2.15301   
     axis 0 0 0   XYZ
    dof rx ry rz
    limits (-20.0 45.0)
           (-30.0 30.0)
           (-30.0 30.0)
  end
  begin
     id 13 
     name thorax
     direction 0.00438186 0.999609 0.0276143   
     length 2.15424   
     axis 0 0 0   XYZ
    dof rx ry rz
    limits (-20.0 45.0)
           (-30.0 30.0)
           (-30.0 30.0)
  end
  begin
     id 14 
     name lowerneck
     direction -0.0488006 0.998094 0.0377807   
     length 1.90481   
     axis 0 0 0   XYZ
    dof rx ry rz
    limits (-20.0 45.0)
           (-30.0 30.0)
           (-30.0 30.0)
  end
  begin
     id 15 
     name upperneck
     direction 0.0443769 0.990702 -0.12861   
     length 1.91305   
     axis 0 0 0   XYZ
    dof rx ry rz
    limits (-20.0 45.0)
           (-30.0 30.0)
           (-30.0 30.0)
  end
  begin
     id 16
     name head
     direction 0.0165599 0.998647 -0.0492982  
     length 1.92369  
     axis 0 0 0   XYZ
    dof rx ry rz
    limits (-20.0 45.0)
           (-30.0 30.0)
           (-30.0 30.0)
  end
  begin
     id 17 
     name lclavicle
     direction 0.911936 0.410197 -0.0105506  
     length 3.52622  
     axis 0 0 0   XYZ
    dof ry rz
    limits (-20.0 10.0)
           (0.0 20.0)
  end
  begin
     id 18 
     name lhumerus
     direction 1 -4.48974e-011 -2.48591e-028   
     length 5.47651   
     axis 180 -30 -90   XYZ
    dof rx ry rz
    limits (-60.0 90.0)
           (-90.0 90.0)
           (-90.0 90.0)
  end
  begin
     id 19
     name lradius
     direction 1 -4.48938e-011 -4.40099e-027   
     length 3.09058   
     axis 180 -30 -90   XYZ
    dof rx
    limits (-10.0 170.0)
  end
  begin
     id 20
     name lwrist
     direction 1 -4.49042e-011 -2.99852e-027   
     length 1.54529   
     axis 1.95339e-015 90 90   XYZ
    dof ry
    limits (-180.0 0.0)
 end
  begin
     id 21 
     name lhand
     direction 1 -4.48815e-011 -5.98193e-027   
     length 0.771611   
     axis 3.82337e-015 90 90   XYZ
    dof rx rz
    limits (-90.0 90.0)
           (-45.0 45.0)
  end
  begin
     id 22 
     name lfingers
     direction 1 -4.49034e-011 -1.1993e-026   
     length 0.622093   
     axis 7.64668e-015 90 90   XYZ
    dof rx
    limits (0.0 90.0)
  end
  begin
     id 23
     name lthumb
     direction 0.707107 -6.34867e-011 0.707107   
     length 0.893204   
     axis -90 45 -1.62303e-014   XYZ
    dof rx rz
    limits (-45.0 45.0)
           (-45.0 45.0)
  end
  begin
     id 24 
     name rclavicle
     direction -0.93442 0.355634 -0.0195692   
     length 3.62463  
     axis 0 0 0   XYZ 
    dof ry rz
    limits (-10.0 20.0)
           (-20.0 0.0)
  end
  begin
     id 25 
     name rhumerus
     direction -1 -4.48957e-011 -1.19147e-027  
     length 5.14182   
     axis 180 30 90   XYZ
    dof rx ry rz
    limits (-90.0 60.0)
           (-90.0 90.0)
           (-90.0 90.0)
  end
  begin
     id 26 
     name rradius
     direction -1 -4.48952e-011 -3.81062e-027   
     length 3.35565   
     axis 180 30 90   XYZ
    dof rx
    limits (-10.0 170.0)
  end
  begin
     id 27 
     name rwrist
     direction -1 -4.48973e-011 -2.99621e-027   
     length 1.67782   
     axis 1.95339e-015 -90 -90   XYZ
    dof ry
    limits (-180.0 0.0)
  end
  begin
     id 28
     name rhand
     direction -1 -4.48895e-011 -5.98727e-027   
     length 0.801042   
     axis 3.82337e-015 -90 -90   XYZ
    dof rx rz
    limits (-90.0 90.0)
           (-45.0 45.0)
  end
  begin
     id 29
     name rfingers
     direction -1 -4.49065e-011 -1.19972e-026   
     length 0.645821   
     axis 7.64668e-015 -90 -90   XYZ
    dof rx
    limits (0.0 90.0)
  end
  begin
     id 30
     name rthumb
     direction -0.707107 -6.34957e-011 0.707107   
     length 0.927273   
     axis -90 -45 1.62303e-014   XYZ
    dof rx rz
    limits (-45.0 45.0)
           (-45.0 45.0)
  end
:hierarchy
  begin
    root lhipjoint rhipjoint lowerback
    lhipjoint lfemur
    lfemur ltibia
    ltibia lfoot
    lfoot ltoes
    rhipjoint rfemur
    rfemur rtibia
    rtibia rfoot
    rfoot rtoes
    lowerback upperback
    upperback thorax
    thorax lowerneck lclavicle rclavicle
    lowerneck upperneck
    upperneck head
    lclavicle lhumerus
    lhumerus lradius
    lradius lwrist
    lwrist lhand lthumb
    lhand lfingers
    rclavicle rhumerus
    rhumerus rradius
    rradius rwrist
    rwrist rhand rthumb
    rhand rfingers
  end

#!OML:ASF E:\Style4\Style4.ASF
:FULLY-SPECIFIED
:DEGREES
102
root -1.18902 17.8668 -0.643123 -0.205947 3.61071 2.15024
lowerback 6.50268 1.87477 0.9408
upperback 6.02653 2.5099 2.06783
thorax 2.52669 1.25087 1.49925
lowerneck 7.66346 -3.6986 -6.3682
upperneck 8.21248 -5.40361 2.54114
head 1.55791 -2.83165 1.93358
rclavicle 2.5842e-015 -1.66979e-014
rhumerus -7.59126 49.0086 -4.59643
rradius 132.086
rwrist -79.2761
rhand 50.9757 -3.56498
rfingers 7.12502
rthumb 70.5769 2.63454
lclavicle 2.5842e-015 -1.66979e-014
lhumerus -1.61314 -38.4721 8.70364
lradius 135.161
lwrist 69.7961
lhand 34.3705 45.3291
lfingers 7.12502
lthumb 57.5874 61.415
rfemur -10.2535 -4.20024 21.129
rtibia 29.2263
rfoot -19.1952 -20.277
rtoes -3.23198
lfemur -10.5735 -2.07242 -16.3135
ltibia 26.8395
lfoot -14.5345 10.1905
ltoes -19.0237
103
root -1.17327 17.8611 -0.645916 -0.193461 3.61004 2.23472
lowerback 6.48959 1.87729 0.856746
upperback 5.99324 2.51042 2.05399
thorax 2.49611 1.24857 1.53144
lowerneck 7.72815 -3.67097 -6.49113
upperneck 8.21103 -5.38353 2.64285
head 1.55319 -2.82473 1.99041
rclavicle 1.37161e-014 3.33958e-014
rhumerus -6.33758 49.1275 -3.26468
rradius 132.297
rwrist -79.7819
rhand 50.8162 -3.39336
rfingers 7.12502
rthumb 70.4765 2.45539
lclavicle 1.37161e-014 3.33958e-014
lhumerus -0.652473 -38.4857 7.95824
lradius 135.269
lwrist 70.7869
lhand 34.417 45.3842
lfingers 7.12502
lthumb 57.6282 61.4346
rfemur -10.4335 -4.33688 20.9708
rtibia 29.5079
rfoot -19.2647 -20.1842
rtoes -3.40959
lfemur -10.5401 -1.79866 -16.5016
ltibia 26.7399
lfoot -14.7599 10.238
ltoes -18.9909
104
root -1.15964 17.8544 -0.649951 -0.251192 3.64054 2.28923
lowerback 6.56065 1.86448 0.770619
upperback 5.98279 2.49156 2.04622
thorax 2.4428 1.2365 1.56943
lowerneck 7.77036 -3.66335 -6.43022
upperneck 8.18781 -5.36981 2.59552
head 1.53411 -2.81653 1.96495
rclavicle 8.54774e-015 -1.27222e-014
rhumerus -5.11727 49.1288 -2.05911
rradius 132.499
rwrist -80.3366
rhand 50.7442 -3.31791
rfingers 7.12502
rthumb 70.431 2.37378
lclavicle 8.54774e-015 -1.27222e-014
lhumerus 0.246685 -38.4793 7.32816
lradius 135.355
lwrist 71.7215
lhand 34.2025 45.2689
lfingers 7.12502
lthumb 57.4403 61.4821
rfemur -10.5115 -4.43243 20.8409
rtibia 29.7288
rfoot -19.1556 -20.2196
rtoes -4.47139
lfemur -10.4573 -1.567 -16.6277
ltibia 26.6548
lfoot -14.9678 10.148
ltoes -18.162
105
root -1.14263 17.8491 -0.649222 -0.322533 3.68588 2.37183
lowerback 6.59576 1.82617 0.679888
upperback 5.98124 2.438 2.0147
thorax 2.42033 1.20735 1.58868
lowerneck 7.80898 -3.65305 -6.3176
upperneck 8.16995 -5.34831 2.53036
head 1.51466 -2.80324 1.92429
rclavicle 2.66371e-014 9.54166e-015
rhumerus -3.8542 49.0813 -1.00374
rradius 132.668
rwrist -80.9292
rhand 50.9012 -3.36801
rfingers 7.12502
rthumb 70.5301 2.66732
lclavicle 2.66371e-014 9.54166e-015
lhumerus 1.03978 -38.4068 6.82173
lradius 135.444
lwrist 72.7128
lhand 33.6667 45.1766
lfingers 7.12502
lthumb 56.9698 61.7878
rfemur -10.514 -4.53523 20.6615
rtibia 29.9085
rfoot -19.0822 -20.2482
rtoes -5.32011
lfemur -10.3478 -1.4649 -16.7906
ltibia 26.6175
lfoot -15.1917 10.0977
ltoes -17.5224
106
root -1.12439 17.8462 -0.646413 -0.365163 3.72614 2.42859
lowerback 6.62544 1.7742 0.664107
upperback 5.96047 2.36966 1.97512
thorax 2.38467 1.17349 1.55819
lowerneck 7.7093 -3.6308 -6.33894
upperneck 8.27815 -5.31619 2.55385
head 1.56653 -2.78857 1.93278
rclavicle -2.26615e-014 1.66979e-014
rhumerus -2.74522 49.0229 -0.197986
rradius 132.808
rwrist -81.4424
rhand 51.3347 -3.45778
rfingers 7.12502
rthumb 70.7999 3.5447
lclavicle -2.26615e-014 1.66979e-014
lhumerus 1.74056 -38.3004 6.48688
lradius 135.564
lwrist 73.7923
lhand 33.4702 45.3963
lfingers 7.12502
lthumb 56.7968 62.1503
rfemur -10.5092 -4.73585 20.5167
rtibia 30.0681
rfoot -19.4321 -19.9744
rtoes -4.29998
lfemur -10.2915 -1.43913 -16.9211
ltibia 26.6632
lfoot -15.3246 10.0517
ltoes -17.4831
107
root -1.10711 17.8391 -0.645982 -0.363474 3.74187 2.40313
lowerback 6.62671 1.73046 0.708644
upperback 5.92546 2.31418 1.96225
thorax 2.35094 1.14751 1.52161
lowerneck 7.57871 -3.61588 -6.37596
upperneck 8.41896 -5.29286 2.57429
head 1.63524 -2.7789 1.9423
rclavicle 0 -1.35174e-014
rhumerus -1.73176 48.9573 0.425666
rradius 132.844
rwrist -81.8989
rhand 51.4998 -3.42463
rfingers 7.12502
rthumb 70.9011 3.95349
lclavicle 0 -1.35174e-014
lhumerus 2.35993 -38.191 6.32135
lradius 135.594
lwrist 74.7175
lhand 33.7623 45.4762
lfingers 7.12502
lthumb 57.0539 62.0172
rfemur -10.602 -4.85886 20.4663
rtibia 30.2708
rfoot -19.6662 -19.8109
rtoes -3.90893
lfemur -10.3447 -1.34541 -16.937
ltibia 26.7677
lfoot -15.2477 10.0126
ltoes -18.6219
108
root -1.09153 17.8297 -0.650415 -0.382972 3.76918 2.37675
lowerback 6.67776 1.68474 0.666053
upperback 5.89402 2.25269 1.98783
thorax 2.28855 1.11496 1.57211
lowerneck 7.53595 -3.59529 -6.33368
upperneck 8.48249 -5.25822 2.5196
head 1.65815 -2.76156 1.91532
rclavicle -1.21259e-014 -4.77083e-015
rhumerus -0.649821 48.8791 0.993838
rradius 132.836
rwrist -82.4452
rhand 51.0449 -3.49068
rfingers 7.12502
rthumb 70.6201 2.86202
lclavicle -1.21259e-014 -4.77083e-015
lhumerus 2.82581 -38.14 6.3723
lradius 135.519
lwrist 75.3767
lhand 34.2014 45.3001
lfingers 7.12502
lthumb 57.4393 61.5142
rfemur -10.7341 -4.85993 20.4269
rtibia 30.5288
rfoot -19.6399 -19.9043
rtoes -4.64225
lfemur -10.4363 -1.18755 -16.9338
ltibia 26.9378
lfoot -15.2337 9.90677
ltoes -19.6573
109
root -1.07609 17.8228 -0.653882 -0.386883 3.81432 2.43077
lowerback 6.7004 1.67395 0.588559
upperback 5.86222 2.2362 1.9684
thorax 2.24099 1.10472 1.59465
lowerneck 7.57896 -3.6022 -6.22488
upperneck 8.49085 -5.2613 2.47928
head 1.64868 -2.76057 1.88351
rclavicle 1.39149e-015 -7.95139e-015
rhumerus 0.0686435 48.8109 1.18873
rradius 132.864
rwrist -82.9775
rhand 50.6479 -3.36331
rfingers 7.12502
rthumb 70.3699 2.11943
lclavicle 1.39149e-015 -7.95139e-015
lhumerus 3.37694 -38.0708 6.49194
lradius 135.494
lwrist 76.115
lhand 34.8306 45.563
lfingers 7.12502
lthumb 57.9895 61.2938
rfemur -10.9166 -5.04965 20.306
rtibia 30.8613
rfoot -19.866 -19.7311
rtoes -4.19546
lfemur -10.5641 -1.07007 -17.0283
ltibia 27.1519
lfoot -15.225 9.83378
ltoes -20.4703
110
root -1.05984 17.8147 -0.653866 -0.401497 3.86895 2.53937
lowerback 6.70639 1.65232 0.472918
upperback 5.84846 2.20318 1.93524
thorax 2.22096 1.08519 1.62617
lowerneck 7.59484 -3.62153 -6.13887
upperneck 8.50016 -5.2797 2.41972
head 1.64499 -2.76793 1.84893
rclavicle 1.98785e-014 -2.3059e-014
rhumerus 0.682105 48.7077 1.1949
rradius 132.878
rwrist -83.4417
rhand 50.7467 -3.09165
rfingers 7.12502
rthumb 70.4326 2.6055
lclavicle 1.98785e-014 -2.3059e-014
lhumerus 3.81457 -37.9672 6.82596
lradius 135.455
lwrist 76.9298
lhand 35.2258 46.189
lfingers 7.12502
lthumb 58.3337 61.6072
rfemur -11.1058 -5.30957 20.1113
rtibia 31.2737
rfoot -20.0774 -19.5429
rtoes -3.80558
lfemur -10.6735 -0.969642 -17.1981
ltibia 27.401
lfoot -15.2316 9.74727
ltoes -21.1083
111
root -1.04116 17.8029 -0.655481 -0.392692 3.90245 2.70346
lowerback 6.71373 1.60011 0.29284
upperback 5.82301 2.12687 1.88624
thorax 2.18751 1.04226 1.67921
lowerneck 7.58479 -3.61209 -6.15118
upperneck 8.52986 -5.26854 2.43243
head 1.65667 -2.76308 1.85484
rclavicle -4.25399e-014 -6.36111e-015
rhumerus 1.35302 48.5153 1.08272
rradius 132.875
rwrist -83.9827
rhand 50.9383 -3.29615
rfingers 7.12502
rthumb 70.5534 2.82073
lclavicle -4.25399e-014 -6.36111e-015
lhumerus 4.04397 -37.8517 7.34022
lradius 135.374
lwrist 77.6191
lhand 35.3845 46.5213
lfingers 7.12502
lthumb 58.4716 61.8118
rfemur -11.3565 -5.62955 19.8269
rtibia 31.7441
rfoot -20.2311 -19.3018
rtoes -3.95275
lfemur -10.8242 -0.865673 -17.434
ltibia 27.6778
lfoot -15.3862 9.61384
ltoes -20.9869
112
root -1.02467 17.7864 -0.661074 -0.371866 3.88249 2.757
lowerback 6.7351 1.56904 0.18718
upperback 5.77838 2.08176 1.87892
thorax 2.12696 1.01671 1.73131
lowerneck 7.60081 -3.5943 -6.25134
upperneck 8.56559 -5.25593 2.49977
head 1.67068 -2.7598 1.89484
rclavicle -2.14687e-014 -1.74931e-014
rhumerus 1.86888 48.2968 0.796078
rradius 132.929
rwrist -84.6472
rhand 50.7775 -3.9092
rfingers 7.12502
rthumb 70.4521 1.85517
lclavicle -2.14687e-014 -1.74931e-014
lhumerus 4.17416 -37.7112 7.99415
lradius 135.349
lwrist 78.0977
lhand 35.5718 46.5583
lfingers 7.12502
lthumb 58.6342 61.6966
rfemur -11.6696 -5.85487 19.6911
rtibia 32.228
rfoot -20.4214 -19.0702
rtoes -3.89862
lfemur -11.041 -0.741591 -17.5272
ltibia 27.9731
lfoot -15.4962 9.4766
ltoes -20.6502
